<?xml version="1.0" standalone="no"?><svg xmlns="http://www.w3.org/2000/svg" viewBox="0 0 1440 320"><path fill="#0099ff" fill-opacity="0.99" d="M0,32L40,64C80,96,160,160,240,208C320,256,400,288,480,266.7C560,245,640,171,720,165.3C800,160,880,224,960,234.7C1040,245,1120,203,1200,208C1280,213,1360,267,1400,293.3L1440,320L1440,320L1400,320C1360,320,1280,320,1200,320C1120,320,1040,320,960,320C880,320,800,320,720,320C640,320,560,320,480,320C400,320,320,320,240,320C160,320,80,320,40,320L0,320Z"></path></svg>